# xmcd CD database file
#
# Track frame offsets:
#	150
#	10509
#	17934
#	25093
#	28405
#	53905
#	76247
#	83209
#	98456
#	115033
#	126625
#	137544
#	151906
#	172536
#	191298
#	215137
#	227244
#	247331
#
# Disc length: 3526 seconds
#
# Revision: 3
# Processed by: cddbd v1.4PL0 Copyright (c) Steve Scherf et al.
# Submitted via: CDex 1.50Beta7
#
DISCID=e20dc412
DTITLE=Jacques Loussier Trio - Baroque Favourites
DYEAR=2001
DGENRE=Jazz
TTITLE0=Handel- Saranade and Variations I - Suite No. 11
TTITLE1=Handel- Saranade and Variations II - Suite No. 11
TTITLE2=Handel- Saranade and Variations III - Suite No. 11
TTITLE3=Handel- Saranade and Variations IV - Suite No. 11
TTITLE4=Marais- La sonnerie de Sainte - Geneviève du Mont
TTITLE5=Scarlatti- Sonata No. 33 in B minor
TTITLE6=Scarlatti- Sonata No. 32 in F - sharp minor
TTITLE7=Handel- Largo (from Xerxes)
TTITLE8=Pachelbel- Canon in D major
TTITLE9=Marcello- Concerto in D minor for Oboe I
TTITLE10=Marcello- Concerto in D minor for Oboe II
TTITLE11=Marcello- Concerto in D minor for Oboe III
TTITLE12=Albinoni- Adagio
TTITLE13=Handel- Concerto in F major for Organ I
TTITLE14=Handel- Concerto in F major for Organ II
TTITLE15=Handel- Concerto in F major for Organ III
TTITLE16=Handel- Concerto in F major for Organ IV
TTITLE17=Handel- Concerto in F major for Organ V
EXTD=YEAR: 2001
EXTT0=
EXTT1=
EXTT2=
EXTT3=
EXTT4=
EXTT5=
EXTT6=
EXTT7=
EXTT8=
EXTT9=
EXTT10=
EXTT11=
EXTT12=
EXTT13=
EXTT14=
EXTT15=
EXTT16=
EXTT17=
PLAYORDER=
